<svg xmlns="http://www.w3.org/2000/svg" width="40" height="40" viewBox="0 0 40 40">
  <path
    fill-rule="evenodd"
    clip-rule="evenodd"
    fill="currentColor"
    d="M0.652117 0.156738H39.2702C39.5439 0.156738 39.7651 0.377643 39.7651 0.65101V19.9882C39.7651 22.6556 39.2398 25.2457 38.2057 27.6867C37.2077 30.0448 35.7811 32.1572 33.9646 33.9714C32.1454 35.7856 30.0304 37.2104 27.672 38.2072C25.2252 39.2427 22.6319 39.7646 19.9611 39.7646C17.2904 39.7646 14.6943 39.24 12.2502 38.2072C9.89192 37.2104 7.77412 35.7856 5.95768 33.9714C4.14124 32.1572 2.71462 30.0421 1.71655 27.6867C0.682532 25.2457 0.157227 22.6528 0.157227 19.9882V0.65101C0.157227 0.377643 0.381171 0.156738 0.652117 0.156738ZM19.9639 3.62753C19.4414 3.12221 18.7198 2.80743 17.918 2.81571V2.81847C15.3744 2.84332 14.122 5.8559 15.9163 7.62036L19.7068 11.3453C19.7123 11.3495 19.7165 11.3536 19.7206 11.3578C19.7248 11.3619 19.7289 11.3661 19.7344 11.3702C19.8036 11.4309 19.8865 11.4558 19.9667 11.4558C20.0496 11.4558 20.1298 11.4282 20.1989 11.3702L20.2266 11.3426L24.017 7.6176C25.8114 5.85313 24.5562 2.84332 22.0154 2.81571C21.2108 2.80743 20.4892 3.11946 19.9639 3.62753ZM6.57975 19.9882C6.57975 27.2338 12.5682 33.1071 19.9584 33.1071H19.9556C27.3458 33.1071 33.3343 27.2338 33.3343 19.9882V11.8341C33.3343 11.5663 33.1131 11.3481 32.8394 11.3481H27.8573C23.9507 11.3481 20.7076 14.126 20.069 17.7764C20.0607 17.8344 20.0081 17.8758 19.9473 17.8703C19.8948 17.8675 19.8533 17.8261 19.8423 17.7764C19.2008 14.126 15.9578 11.3481 12.054 11.3481H7.07187C6.80093 11.3481 6.57975 11.5663 6.57975 11.8341V19.9882Z"
  />
</svg>